<svg width="406" height="406" viewBox="0 0 406 406" fill="none" xmlns="http://www.w3.org/2000/svg">
<g clip-path="url(#clip0)">
<ellipse cx="202.5" cy="201.5" rx="202.5" ry="200.5" fill="#3A3833"/>
<path d="M202.7 1V3.8H169.3C164.4 4.6 159.5 5.6 154.7 6.8H202.7V9.6H144.2C141.3 10.5 138.4 11.4 135.5 12.4H202.7V15.2H127.9C125.6 16.1 123.4 17.1 121.1 18H202.6V20.8H115C113.1 21.7 111.2 22.7 109.4 23.6H202.8V26.4H104.2C102.5 27.3 100.9 28.3 99.3 29.2H202.8V32H94.5C93 32.9 91.6 33.9 90.1 34.8H202.6V37.6H86C84.7 38.5 83.4 39.5 82.1 40.4H202.7V43.2H78.4C77.2 44.1 76 45.1 74.8 46H202.7V48.8H71.4C70.3 49.7 69.2 50.7 68.1 51.6H202.6V54.4H65C64 55.3 63 56.3 62 57.2H202.7V60H59.1C58.2 60.9 57.2 61.9 56.3 62.8H202.6V65.6H53.6C52.7 66.5 51.9 67.5 51 68.4H202.5V71.2H48.5C47.7 72.1 46.9 73.1 46.1 74H202.5V76.8H44C43.3 77.7 42.5 78.7 41.8 79.6H202.7V82.4H39.7C39 83.3 38.3 84.3 37.6 85.2H202.7V88H35.6C35 88.9 34.3 89.9 33.7 90.8H202.7V93.6H31.8C31.2 94.5 30.6 95.5 30 96.4H202.6V99.2H28.3C27.7 100.1 27.2 101.1 26.6 102H202.6V104.8H25.1C24.6 105.7 24.1 106.7 23.6 107.6H202.7V110.4H22.1C21.6 111.3 21.2 112.3 20.7 113.2H202.7V116H19.3C18.9 116.9 18.4 117.9 18 118.8H202.7V121.6H16.7C16.3 122.5 15.9 123.5 15.5 124.4H202.7V127.2H14.4C14 128.1 13.7 129.1 13.3 130H202.7V132.8H12.2C11.9 133.7 11.5 134.7 11.2 135.6H202.7V138.4H10.2C9.9 139.3 9.6 140.3 9.3 141.2H202.7V144H8.4C8.1 144.9 7.8 145.9 7.6 146.8H202.7V149.6H6.8C6.5 150.5 6.3 151.5 6.1 152.4H202.7V155.2H5.4C5.2 156.1 5 157.1 4.8 158H202.7V160.8H4.2C4 161.7 3.8 162.7 3.7 163.6H202.8V166.4H3.1C2.9 167.3 2.8 168.3 2.6 169.2H202.7V172H2.2C2.1 172.9 1.9 173.9 1.8 174.8H202.7V177.6H1.4C1.3 178.5 1.2 179.5 1.1 180.4H202.7V183.2H0.8C0.7 184.1 0.6 185.1 0.6 186H202.7V188.8H0.4C0.3 189.7 0.3 190.7 0.2 191.6H202.6V194.4H0.1C0.1 195.3 0 196.3 0 197.2H202.6V200H0C0 200.4 0 200.9 0 201.3C0 201.8 0 202.3 0 202.8H202.7V205.6H0.1C0.1 206.5 0.2 207.5 0.2 208.4H202.7V211.2H0.2C0.2 212.1 0.3 213.1 0.4 214H202.7V216.8H0.6C0.7 217.7 0.8 218.7 0.9 219.6H202.7V222.4H1.1C1.2 223.3 1.3 224.3 1.4 225.2H202.6V228H1.8C1.9 228.9 2.1 229.9 2.2 230.8H202.7V233.6H2.6C2.8 234.5 2.9 235.5 3.1 236.4H202.7V239.2H3.6C3.8 240.1 4 241.1 4.2 242H202.7V244.8H4.8C5 245.7 5.2 246.7 5.4 247.6H202.6V250.4H6.1C6.3 251.3 6.6 252.3 6.8 253.2H202.6V256H7.7C8 256.9 8.3 257.9 8.5 258.8H202.7V261.6H9.4C9.7 262.5 10 263.5 10.3 264.4H202.7V267.2H11.2C11.5 268.1 11.9 269.1 12.2 270H202.6V272.8H13.3C13.7 273.7 14 274.7 14.4 275.6H202.7V278.4H15.6C16 279.3 16.4 280.3 16.8 281.2H202.7V284H18C18.4 285 18.9 285.9 19.3 286.8H202.6V289.6H20.7C21.2 290.5 21.6 291.5 22.1 292.4H202.6V295.2H23.6C24.1 296.1 24.6 297.1 25.1 298H202.6V300.8H26.8C27.3 301.8 27.9 302.7 28.5 303.6H202.8V306.4H30.1C30.7 307.3 31.3 308.3 31.9 309.2H202.7V312H33.8C34.4 313 35.1 313.9 35.7 314.8H202.7V317.6H37.7C38.4 318.6 39.1 319.5 39.8 320.4H202.7V323.2H41.9C42.6 324.2 43.4 325.1 44.1 326H202.7V328.8H46.4C47.2 329.8 48 330.7 48.8 331.6H202.7V334.4H51.3C52.1 335.4 53 336.3 53.9 337.2H202.7V340H56.5C57.4 341 58.3 341.9 59.3 342.8H202.7V345.6H62.2C63.2 346.6 64.2 347.5 65.2 348.4H202.7V351.2H68.3C69.4 352.2 70.5 353.1 71.6 354H202.7V356.8H75C76.2 357.8 77.4 358.7 78.6 359.6H202.7V362.4H82.3C83.6 363.4 84.9 364.3 86.2 365.2H202.6V368H90.4C91.8 369 93.3 369.9 94.8 370.8H202.7V373.6H99.4C101 374.6 102.7 375.5 104.3 376.4H202.7V379.2H109.6C111.5 380.2 113.4 381.1 115.3 382H202.7V384.8H121.5C123.7 385.8 126 386.7 128.3 387.6H202.7V390.4H135.9C138.8 391.4 141.7 392.4 144.7 393.2H202.7V396H155.3C159.9 397.1 164.6 398.1 169.3 398.8H202.7V401.6C314.6 401.6 405.4 310.9 405.4 198.9C405.4 86.9 314.6 1 202.7 1Z" fill="#F8C708"/>
</g>
<defs>
<clipPath id="clip0">
<rect width="405.4" height="405.4" fill="white"/>
</clipPath>
</defs>
</svg>
