<svg width="421" height="103" viewBox="0 0 421 103" fill="none" xmlns="http://www.w3.org/2000/svg">
<path d="M147.9 29.844V60.644H140.772V48.016H126.78V60.644H119.652V29.844H126.78V41.988H140.772V29.844H147.9Z" fill="#F3F3F3"/>
<path d="M179.035 54.924V60.644H155.188V29.844H178.464V35.564H162.271V42.252H176.571V47.796H162.271V54.924H179.035Z" fill="#F3F3F3"/>
<path d="M184.707 29.844H191.835V60.644H184.707V29.844Z" fill="#F3F3F3"/>
<path d="M199.145 29.844H206.273V54.836H221.717V60.644H199.145V29.844Z" fill="#F3F3F3"/>
<path d="M235.647 61.172C233.213 61.172 230.851 60.8493 228.563 60.204C226.305 59.5293 224.486 58.664 223.107 57.608L225.527 52.24C226.847 53.208 228.417 53.9853 230.235 54.572C232.054 55.1587 233.873 55.452 235.691 55.452C237.715 55.452 239.211 55.1587 240.179 54.572C241.147 53.956 241.631 53.1493 241.631 52.152C241.631 51.4187 241.338 50.8173 240.751 50.348C240.194 49.8493 239.461 49.4533 238.551 49.16C237.671 48.8667 236.469 48.544 234.943 48.192C232.597 47.6347 230.675 47.0773 229.179 46.52C227.683 45.9627 226.393 45.068 225.307 43.836C224.251 42.604 223.723 40.9613 223.723 38.908C223.723 37.1187 224.207 35.5053 225.175 34.068C226.143 32.6013 227.595 31.4427 229.531 30.592C231.497 29.7413 233.887 29.316 236.703 29.316C238.669 29.316 240.59 29.5507 242.467 30.02C244.345 30.4893 245.987 31.164 247.395 32.044L245.195 37.456C242.35 35.8427 239.505 35.036 236.659 35.036C234.665 35.036 233.183 35.3587 232.215 36.004C231.277 36.6493 230.807 37.5 230.807 38.556C230.807 39.612 231.35 40.404 232.435 40.932C233.55 41.4307 235.237 41.9293 237.495 42.428C239.842 42.9853 241.763 43.5427 243.259 44.1C244.755 44.6573 246.031 45.5373 247.087 46.74C248.173 47.9427 248.715 49.5707 248.715 51.624C248.715 53.384 248.217 54.9973 247.219 56.464C246.251 57.9013 244.785 59.0453 242.819 59.896C240.854 60.7467 238.463 61.172 235.647 61.172Z" fill="#F3F3F3"/>
<path d="M273.87 54.044H259.57L256.842 60.644H249.538L263.266 29.844H270.306L284.078 60.644H276.598L273.87 54.044ZM271.626 48.632L266.742 36.84L261.858 48.632H271.626Z" fill="#F3F3F3"/>
<path d="M315.521 29.844V60.644H309.669L294.313 41.944V60.644H287.273V29.844H293.169L308.481 48.544V29.844H315.521Z" fill="#F3F3F3"/>
<path d="M363.298 60.644L363.254 42.164L354.19 57.388H350.978L341.958 42.56V60.644H335.27V29.844H341.166L352.694 48.984L364.046 29.844H369.898L369.986 60.644H363.298Z" fill="#F3F3F3"/>
<path d="M377.293 29.844H384.421V60.644H377.293V29.844ZM382.793 21H390.185L382.221 27.336H376.853L382.793 21Z" fill="#F3F3F3"/>
<path d="M419.978 29.844V60.644H414.126L398.77 41.944V60.644H391.73V29.844H397.626L412.938 48.544V29.844H419.978Z" fill="#F3F3F3"/>
<line x1="119" y1="79.144" x2="421" y2="79.144" stroke="#F3F3F3" stroke-width="5"/>
<circle cx="51.5" cy="51.5" r="51" fill="#E76F51" stroke="#E76F51"/>
<mask id="path-4-inside-1" fill="white">
<rect x="19" y="34" width="66" height="45" rx="1.5"/>
</mask>
<rect x="19" y="34" width="66" height="45" rx="1.5" fill="#E76F51" stroke="#F3F3F3" stroke-width="8" mask="url(#path-4-inside-1)"/>
<path d="M41 34V22.2C41 22.0895 41.0895 22 41.2 22H62.8C62.9105 22 63 22.0895 63 22.2V34" stroke="#F3F3F3" stroke-width="4"/>
<line x1="52.2001" y1="44" x2="52.2001" y2="70" stroke="#F3F3F3" stroke-width="4" stroke-linecap="round"/>
<line x1="65" y1="57.2" x2="39" y2="57.1999" stroke="#F3F3F3" stroke-width="4" stroke-linecap="round"/>
</svg>
