<svg width="177" height="22" viewBox="0 0 177 22" fill="none" xmlns="http://www.w3.org/2000/svg">
<path d="M16.72 0.199999L9.496 12.656L2.2 0.199999H0.736V17H2.44V3.632L9.04 14.864H9.88L16.48 3.56V17H18.184V0.199999H16.72ZM34.3139 10.688C34.3139 6.896 31.7459 4.28 28.1939 4.28C24.6419 4.28 22.0259 6.944 22.0259 10.688C22.0259 14.432 24.7139 17.12 28.6499 17.12C30.6419 17.12 32.3939 16.4 33.5219 15.056L32.5619 13.952C31.6019 15.056 30.2339 15.608 28.6979 15.608C25.9379 15.608 23.9219 13.856 23.7299 11.216H34.2899C34.2899 11.024 34.3139 10.832 34.3139 10.688ZM28.1939 5.744C30.6659 5.744 32.4659 7.472 32.6819 9.944H23.7299C23.9459 7.472 25.7459 5.744 28.1939 5.744ZM53.5263 4.28C51.2463 4.28 49.4463 5.312 48.5343 6.944C47.7663 5.168 46.1343 4.28 44.0463 4.28C41.9343 4.28 40.3023 5.168 39.4143 6.68V4.376H37.7823V17H39.4863V10.376C39.4863 7.496 41.1423 5.816 43.7103 5.816C46.0143 5.816 47.3583 7.184 47.3583 9.848V17H49.0623V10.376C49.0623 7.496 50.6943 5.816 53.2863 5.816C55.5663 5.816 56.9103 7.184 56.9103 9.848V17H58.6143V9.68C58.6143 6.056 56.5983 4.28 53.5263 4.28ZM68.4423 17.12C72.1383 17.12 74.8503 14.432 74.8503 10.688C74.8503 6.944 72.1383 4.28 68.4423 4.28C64.7463 4.28 62.0103 6.944 62.0103 10.688C62.0103 14.432 64.7463 17.12 68.4423 17.12ZM68.4423 15.608C65.7543 15.608 63.7383 13.64 63.7383 10.688C63.7383 7.736 65.7543 5.768 68.4423 5.768C71.1303 5.768 73.1223 7.736 73.1223 10.688C73.1223 13.64 71.1303 15.608 68.4423 15.608ZM79.9611 6.848V4.376H78.3291V17H80.0331V10.568C80.0331 7.592 81.6411 5.912 84.2811 5.912C84.4011 5.912 84.5451 5.936 84.6891 5.936V4.28C82.3611 4.28 80.7531 5.168 79.9611 6.848ZM97.2415 4.376L92.4895 15.104L87.7375 4.376H85.9615L91.6015 16.976L91.0495 18.2C90.3295 19.784 89.5615 20.312 88.4335 20.312C87.5215 20.312 86.7535 19.976 86.1295 19.352L85.3375 20.624C86.1055 21.392 87.2335 21.776 88.4095 21.776C90.2095 21.776 91.5535 20.984 92.6095 18.512L98.9215 4.376H97.2415ZM119.795 14.264C118.499 15.2 117.011 15.56 115.403 15.56C111.275 15.56 108.227 12.584 108.227 8.6C108.227 4.592 111.275 1.64 115.427 1.64C117.395 1.64 119.075 2.216 120.491 3.608L121.595 2.48C120.107 0.871999 117.899 0.0559993 115.355 0.0559993C110.219 0.0559993 106.475 3.68 106.475 8.6C106.475 13.52 110.219 17.144 115.331 17.144C117.659 17.144 119.915 16.424 121.499 15.008V8.6H119.795V14.264ZM130.581 4.28C128.589 4.28 126.717 4.904 125.445 5.984L126.213 7.256C127.245 6.344 128.781 5.768 130.413 5.768C132.765 5.768 133.989 6.944 133.989 9.104V9.872H129.981C126.357 9.872 125.109 11.504 125.109 13.448C125.109 15.632 126.861 17.12 129.717 17.12C131.805 17.12 133.293 16.328 134.061 15.032V17H135.693V9.176C135.693 5.912 133.845 4.28 130.581 4.28ZM129.981 15.776C127.965 15.776 126.789 14.864 126.789 13.4C126.789 12.104 127.581 11.144 130.029 11.144H133.989V13.208C133.317 14.864 131.901 15.776 129.981 15.776ZM156.065 4.28C153.785 4.28 151.985 5.312 151.073 6.944C150.305 5.168 148.673 4.28 146.585 4.28C144.473 4.28 142.841 5.168 141.953 6.68V4.376H140.321V17H142.025V10.376C142.025 7.496 143.681 5.816 146.249 5.816C148.553 5.816 149.897 7.184 149.897 9.848V17H151.601V10.376C151.601 7.496 153.233 5.816 155.825 5.816C158.105 5.816 159.449 7.184 159.449 9.848V17H161.153V9.68C161.153 6.056 159.137 4.28 156.065 4.28ZM176.837 10.688C176.837 6.896 174.269 4.28 170.717 4.28C167.165 4.28 164.549 6.944 164.549 10.688C164.549 14.432 167.237 17.12 171.173 17.12C173.165 17.12 174.917 16.4 176.045 15.056L175.085 13.952C174.125 15.056 172.757 15.608 171.221 15.608C168.461 15.608 166.445 13.856 166.253 11.216H176.813C176.813 11.024 176.837 10.832 176.837 10.688ZM170.717 5.744C173.189 5.744 174.989 7.472 175.205 9.944H166.253C166.469 7.472 168.269 5.744 170.717 5.744Z" fill="white"/>
</svg>
