<svg width="108" height="49" viewBox="0 0 108 49" fill="none" xmlns="http://www.w3.org/2000/svg">
<path d="M55.0216 29.0557C55.0464 24.6779 53.5413 20.6417 49.4161 18.2385C49.7878 17.9837 49.986 17.6015 49.986 17.1324V10.1487C49.986 10.085 49.9798 10.0271 49.9736 9.9634C49.9426 9.69123 49.8311 9.43643 49.6515 9.22796C49.3542 8.89209 48.9454 8.71258 48.4499 8.71258H44.0955C43.5071 8.71258 43.0673 8.92105 42.7886 9.34378C42.64 9.57541 42.5656 9.84179 42.5656 10.1429V16.3217C41.587 16.258 40.5031 16.258 39.5244 16.3159V10.1545C39.5244 9.92865 39.4811 9.72597 39.3943 9.54067C39.1466 9.03107 38.6139 8.71258 37.9945 8.71837H33.5844C33.1447 8.71837 32.7792 8.85735 32.5067 9.13531C32.2404 9.40748 32.1041 9.74914 32.1041 10.1545V17.1382C32.1041 17.5899 32.2713 17.9547 32.6058 18.2211C28.7222 20.4506 27.0808 24.2146 27.0313 28.355C26.9879 29.3453 27.0127 31.8122 27.0065 32.8719C26.9445 35.831 27.31 38.8364 28.8275 41.1875C31.3794 45.1774 35.7771 46.5846 41.0234 46.5961C46.2201 46.5904 50.6301 45.16 53.1635 41.1875C54.3093 39.3518 54.9287 36.966 54.9907 34.7539C55.065 33.3178 55.0216 30.5266 55.0216 29.0557ZM46.0962 31.4589C46.0342 32.9819 45.8422 34.5339 44.9689 35.831C44.1327 37.0355 42.8753 37.574 41.0172 37.5856C39.4873 37.5798 38.3228 37.1861 37.4866 36.3695C36.7557 35.6399 36.3655 34.6786 36.1425 33.7116C35.9815 33.0398 35.9072 32.2002 35.8824 31.4416C35.9072 30.6424 36.0001 29.7333 36.1859 29.0036C36.7681 26.6757 38.2609 25.2801 41.0172 25.2975C45.0184 25.2222 46.0157 28.3145 46.0962 31.4589ZM54.4022 30.2544C54.4022 30.2255 54.4022 30.1965 54.4022 30.1676C54.4022 30.1907 54.4084 30.2371 54.4022 30.2544Z" fill="#F8513D"/>
<path d="M38.8987 10.1539V14.2249C38.8987 14.4739 38.8182 14.665 38.6572 14.804C38.4837 14.9545 38.267 15.024 37.9944 15.024H33.5843C33.3118 15.024 33.1074 14.9545 32.9526 14.8098C32.7977 14.665 32.7234 14.4739 32.7234 14.2191V10.1481C32.7234 10.0497 32.7358 9.96284 32.7544 9.88176C32.7729 9.81228 32.7977 9.74858 32.8349 9.69067C32.8473 9.6675 32.8658 9.64434 32.8782 9.62118C32.903 9.58643 32.9278 9.55748 32.9588 9.52852C33.1136 9.37217 33.3118 9.29689 33.5782 9.29689H37.9882C38.2608 9.29689 38.4714 9.37217 38.6448 9.53432C38.6758 9.56327 38.7067 9.59801 38.7315 9.62697C38.7563 9.66171 38.7811 9.69646 38.7996 9.7312C38.8182 9.76016 38.8306 9.7949 38.843 9.82386C38.8554 9.85281 38.8678 9.88756 38.874 9.9223C38.8864 10.0034 38.8987 10.0729 38.8987 10.1539Z" fill="white"/>
<path d="M49.3603 10.1539V14.2249C49.3603 14.4739 49.2798 14.665 49.1188 14.804C48.9453 14.9545 48.7285 15.024 48.456 15.024H44.1017C43.7982 15.024 43.569 14.9545 43.4203 14.8098C43.2655 14.665 43.1912 14.4739 43.1912 14.2191V10.1481C43.1912 9.89335 43.2655 9.68488 43.4265 9.52852C43.5814 9.37217 43.7982 9.29689 44.1017 9.29689H48.456C48.7285 9.29689 48.9391 9.37217 49.1126 9.53432C49.1435 9.56327 49.1745 9.59801 49.1993 9.62697C49.2241 9.66171 49.2488 9.69646 49.2674 9.7312C49.286 9.76016 49.2984 9.7949 49.3108 9.82386C49.3232 9.85281 49.3355 9.88756 49.3417 9.9223C49.3541 10.0034 49.3603 10.0729 49.3603 10.1539Z" fill="white"/>
<path d="M54.3961 29.0904C54.3899 28.8125 54.3837 28.5345 54.3714 28.2566C54.3714 28.2102 54.3652 28.1639 54.3652 28.1234C54.4085 17.7173 41.9277 14.4107 33.3058 18.5106C28.8276 20.7517 27.3906 25.4306 27.6259 29.9533C27.4773 34.9334 28.778 39.4734 33.7703 41.7608C37.4124 43.5328 44.5478 43.5443 48.2084 41.7608C53.4732 39.4329 54.6687 34.1748 54.3961 29.0904ZM46.7404 30.6713C46.7342 30.9435 46.7342 31.1867 46.7218 31.4415C46.7157 31.5979 46.7095 31.7542 46.6971 31.9106C46.6971 31.9337 46.6909 31.9569 46.6909 31.9801C46.6475 32.7734 46.5422 33.532 46.3316 34.2848C46.313 34.3427 46.2945 34.4064 46.2759 34.4643C46.2697 34.4759 46.2697 34.4933 46.2635 34.5049C46.2573 34.5164 46.2573 34.5338 46.2511 34.5454V34.5512C46.2325 34.6149 46.2078 34.6786 46.183 34.7423C46.1706 34.7828 46.152 34.8234 46.1396 34.8639C46.1272 34.8928 46.121 34.9218 46.1086 34.945C46.1086 34.9508 46.1025 34.9565 46.1025 34.9565C45.9104 35.4546 45.6503 35.9352 45.3158 36.3695C43.5939 38.7959 38.3043 38.738 36.6381 36.3116C36.6381 36.3116 36.6381 36.3116 36.6381 36.3058C36.5204 36.1552 36.4151 35.9989 36.316 35.8367C36.1612 35.5877 36.0311 35.3272 35.9196 35.055C35.9134 35.0492 35.9134 35.0434 35.9134 35.0376C35.8949 34.9971 35.8763 34.9565 35.8639 34.9102C35.8081 34.7712 35.7586 34.6323 35.7152 34.4817C35.6966 34.4354 35.6843 34.3833 35.6719 34.3369C35.6037 34.1053 35.548 33.8679 35.4984 33.6304C35.3931 33.1209 35.325 32.5649 35.294 31.9685C35.1516 29.2931 35.0587 25.2974 36.8425 23.4154C38.5397 21.2612 43.4762 21.2439 45.161 23.4154C46.6785 25.0948 46.7962 28.1234 46.7404 30.6713Z" fill="white"/>
<path d="M70.7852 21.4813C70.5932 20.8385 70.3392 20.4447 70.0543 19.9178C69.7632 19.3908 69.6393 18.8059 69.695 18.221C69.7322 17.8157 69.7632 17.4161 69.7941 17.0108C69.9923 14.2601 70.0295 11.4921 69.9304 8.71252C69.9118 8.12765 69.8809 7.53698 69.8499 6.94632C70.1658 6.82471 70.364 6.5178 70.333 6.1993L70.2215 4.97744C70.2153 4.91374 70.2401 4.85004 70.2896 4.79792C70.4445 4.64157 70.5312 4.42152 70.5126 4.20726C70.5126 4.18989 70.5064 4.17251 70.5064 4.16093L70.5002 4.13198C70.4383 3.77874 70.1286 3.50078 69.7446 3.45445L66.1397 3.00856C65.4522 2.91591 64.9195 3.59343 65.2478 4.17251C65.2788 4.23042 65.285 4.29991 65.2602 4.35782L64.8142 5.51599C64.6965 5.81711 64.8018 6.16456 65.0744 6.35565C63.7922 10.0386 62.7888 13.7158 62.1013 17.2829C61.8659 18.5106 61.1226 18.8812 60.4041 19.7962C59.9706 20.3694 59.6609 21.0122 59.4874 21.7071C59.0662 24.1624 56.6506 41.8418 56.3347 43.9033C56.248 44.5403 56.5577 45.1831 57.1275 45.5306C59.1468 46.7177 64.0957 47.4357 66.691 46.7061C67.3413 46.5092 67.8121 45.9649 67.905 45.3279L68.3076 42.4556C68.3076 42.4556 70.9524 23.6934 70.9524 23.6876C71.0515 22.929 70.9958 22.1878 70.7852 21.4813ZM61.5376 19.4255C61.5562 19.4082 61.5686 19.3908 61.5872 19.3734C61.5128 19.4487 61.4323 19.5298 61.358 19.6051C61.4137 19.5529 61.4757 19.4892 61.5376 19.4255ZM61.358 19.6108C61.3023 19.6688 61.2465 19.7267 61.1908 19.7904C61.2465 19.7325 61.3023 19.6745 61.358 19.6108Z" fill="#F8513D"/>
<path d="M70.3268 23.6059L67.6882 42.3624C67.6882 42.3682 67.6882 42.3682 67.6882 42.374C67.6262 42.7851 67.3165 43.1326 66.9015 43.26C65.9043 43.5669 64.1762 43.6074 62.2933 43.3758C60.4041 43.1441 58.7503 42.6867 57.8708 42.1481C57.4992 41.9223 57.301 41.5053 57.3567 41.0884L59.9953 22.3319C60.0882 21.6544 60.3174 21.029 60.6766 20.4673C60.8501 20.1951 61.0111 19.9924 61.1969 19.7956C61.2527 19.7376 61.3084 19.6797 61.3642 19.616C61.4199 19.5581 61.4819 19.4944 61.5438 19.4307C61.5624 19.4134 61.5748 19.396 61.5933 19.3786C61.6429 19.3265 61.6925 19.2802 61.742 19.2281C62.2437 18.7069 62.5782 18.0699 62.7144 17.3866C63.402 13.831 64.3992 10.1654 65.6813 6.49403C65.7557 6.27398 65.669 6.03656 65.4646 5.90916C65.4088 5.87442 65.3778 5.81651 65.3902 5.75281C65.3902 5.74123 65.3964 5.72964 65.3964 5.71806L65.8424 4.5599C65.9291 4.34564 65.9105 4.10821 65.7928 3.90554C65.7681 3.865 65.7619 3.81867 65.7681 3.77814C65.7681 3.76077 65.7743 3.74918 65.7804 3.73181L65.7866 3.72602C65.83 3.63337 65.9415 3.57546 66.053 3.59283L69.6517 4.03293C69.7693 4.04452 69.8561 4.12559 69.8746 4.22982V4.23561C69.8746 4.25299 69.8746 4.26457 69.8746 4.28194C69.8684 4.32248 69.8499 4.3688 69.8127 4.39776C69.6455 4.56569 69.5649 4.79153 69.5835 5.01737L69.695 6.24503C69.695 6.25661 69.695 6.26819 69.695 6.27977C69.6888 6.34347 69.6393 6.3898 69.5773 6.41296C69.3481 6.48824 69.1933 6.69671 69.2057 6.92835C69.4287 10.785 69.3791 14.5722 69.057 18.1683C68.9951 18.8632 69.1437 19.5581 69.4844 20.1835C69.534 20.2704 69.5773 20.3515 69.6207 20.4268C69.8499 20.8321 70.0295 21.1564 70.1719 21.637C70.3701 22.2682 70.4197 22.9284 70.3268 23.6059Z" fill="white"/>
</svg>
