<svg width="167" height="19" viewBox="0 0 167 19" fill="none" xmlns="http://www.w3.org/2000/svg">
<path d="M6.664 1.2C7.544 1.2 8.336 1.408 9.04 1.824C9.744 2.224 10.288 2.792 10.672 3.528C11.072 4.248 11.272 5.064 11.272 5.976C11.272 6.888 11.072 7.72 10.672 8.472C10.288 9.224 9.744 9.816 9.04 10.248C8.336 10.68 7.544 10.896 6.664 10.896H1.696V17.28C1.696 17.488 1.624 17.664 1.48 17.808C1.352 17.936 1.184 18 0.976 18C0.768 18 0.592 17.936 0.448 17.808C0.32 17.664 0.256 17.488 0.256 17.28V1.92C0.256 1.712 0.32 1.544 0.448 1.416C0.592 1.272 0.768 1.2 0.976 1.2H6.664ZM6.664 9.504C7.592 9.504 8.344 9.168 8.92 8.496C9.496 7.824 9.784 6.984 9.784 5.976C9.784 4.984 9.496 4.176 8.92 3.552C8.344 2.928 7.592 2.616 6.664 2.616H1.696V9.504H6.664ZM15.7769 17.28C15.7769 17.488 15.7049 17.664 15.5609 17.808C15.4329 17.936 15.2649 18 15.0569 18C14.8489 18 14.6729 17.936 14.5289 17.808C14.4009 17.664 14.3369 17.488 14.3369 17.28V0.959999C14.3369 0.751999 14.4009 0.583999 14.5289 0.456C14.6729 0.312 14.8489 0.24 15.0569 0.24C15.2649 0.24 15.4329 0.312 15.5609 0.456C15.7049 0.583999 15.7769 0.751999 15.7769 0.959999V17.28ZM29.6841 5.736C29.8921 5.736 30.0601 5.808 30.1881 5.952C30.3321 6.096 30.4041 6.272 30.4041 6.48V17.28C30.4041 17.488 30.3321 17.664 30.1881 17.808C30.0601 17.936 29.8921 18 29.6841 18C29.4761 18 29.3001 17.936 29.1561 17.808C29.0281 17.664 28.9641 17.488 28.9641 17.28V15.672C28.5641 16.392 27.9641 17 27.1641 17.496C26.3641 17.992 25.4921 18.24 24.5481 18.24C23.4761 18.24 22.5081 17.96 21.6441 17.4C20.7961 16.84 20.1241 16.072 19.6281 15.096C19.1481 14.12 18.9081 13.024 18.9081 11.808C18.9081 10.592 19.1561 9.504 19.6521 8.544C20.1481 7.568 20.8201 6.808 21.6681 6.264C22.5321 5.72 23.4841 5.448 24.5241 5.448C25.4841 5.448 26.3641 5.68 27.1641 6.144C27.9641 6.608 28.5641 7.216 28.9641 7.968V6.48C28.9641 6.272 29.0281 6.096 29.1561 5.952C29.3001 5.808 29.4761 5.736 29.6841 5.736ZM24.6921 16.896C25.5241 16.896 26.2681 16.68 26.9241 16.248C27.5961 15.8 28.1161 15.192 28.4841 14.424C28.8681 13.64 29.0601 12.768 29.0601 11.808C29.0601 10.88 28.8681 10.032 28.4841 9.264C28.1161 8.496 27.5961 7.896 26.9241 7.464C26.2681 7.016 25.5241 6.792 24.6921 6.792C23.8601 6.792 23.1081 7.008 22.4361 7.44C21.7801 7.872 21.2601 8.472 20.8761 9.24C20.5081 9.992 20.3241 10.848 20.3241 11.808C20.3241 12.768 20.5081 13.64 20.8761 14.424C21.2441 15.192 21.7561 15.8 22.4121 16.248C23.0841 16.68 23.8441 16.896 24.6921 16.896ZM39.9456 5.448C41.4336 5.448 42.5216 5.888 43.2096 6.768C43.9136 7.632 44.2656 8.784 44.2656 10.224V17.28C44.2656 17.488 44.1936 17.664 44.0496 17.808C43.9056 17.936 43.7376 18 43.5456 18C43.3376 18 43.1616 17.936 43.0176 17.808C42.8896 17.664 42.8256 17.488 42.8256 17.28V10.296C42.8256 9.256 42.5616 8.416 42.0336 7.776C41.5216 7.12 40.7216 6.792 39.6336 6.792C38.9456 6.792 38.2896 6.952 37.6656 7.272C37.0576 7.592 36.5616 8.024 36.1776 8.568C35.7936 9.096 35.6016 9.672 35.6016 10.296V17.28C35.6016 17.488 35.5296 17.664 35.3856 17.808C35.2576 17.936 35.0896 18 34.8816 18C34.6736 18 34.4976 17.936 34.3536 17.808C34.2256 17.664 34.1616 17.488 34.1616 17.28V6.528C34.1616 6.32 34.2256 6.152 34.3536 6.024C34.4976 5.88 34.6736 5.808 34.8816 5.808C35.0896 5.808 35.2576 5.88 35.3856 6.024C35.5296 6.152 35.6016 6.32 35.6016 6.528V7.848C36.0336 7.16 36.6496 6.592 37.4496 6.144C38.2656 5.68 39.0976 5.448 39.9456 5.448ZM50.4366 7.128V15.168C50.4366 15.776 50.5486 16.192 50.7726 16.416C50.9966 16.624 51.2926 16.728 51.6606 16.728C51.7566 16.728 51.8766 16.712 52.0206 16.68C52.1646 16.632 52.2766 16.608 52.3566 16.608C52.5006 16.608 52.6206 16.672 52.7166 16.8C52.8286 16.912 52.8846 17.048 52.8846 17.208C52.8846 17.432 52.7566 17.624 52.5006 17.784C52.2446 17.928 51.9406 18 51.5886 18C51.1566 18 50.7726 17.96 50.4366 17.88C50.1006 17.8 49.7726 17.56 49.4526 17.16C49.1486 16.76 48.9966 16.12 48.9966 15.24V7.128H47.2446C47.0526 7.128 46.8846 7.064 46.7406 6.936C46.6126 6.808 46.5486 6.648 46.5486 6.456C46.5486 6.264 46.6126 6.104 46.7406 5.976C46.8846 5.848 47.0526 5.784 47.2446 5.784H48.9966V3.12C48.9966 2.912 49.0606 2.744 49.1886 2.616C49.3326 2.472 49.5086 2.4 49.7166 2.4C49.9246 2.4 50.0926 2.472 50.2206 2.616C50.3646 2.744 50.4366 2.912 50.4366 3.12V5.784H52.8366C53.0126 5.784 53.1646 5.856 53.2926 6C53.4366 6.144 53.5086 6.304 53.5086 6.48C53.5086 6.672 53.4446 6.832 53.3166 6.96C53.1886 7.072 53.0286 7.128 52.8366 7.128H50.4366ZM75.3559 2.448C75.5959 2.592 75.7159 2.792 75.7159 3.048C75.7159 3.192 75.6599 3.352 75.5479 3.528C75.4039 3.704 75.2199 3.792 74.9959 3.792C74.8679 3.792 74.7399 3.752 74.6119 3.672C73.3319 2.824 71.9319 2.4 70.4119 2.4C69.1159 2.4 67.9399 2.704 66.8839 3.312C65.8439 3.92 65.0199 4.776 64.4119 5.88C63.8199 6.968 63.5239 8.208 63.5239 9.6C63.5239 11.024 63.8279 12.288 64.4359 13.392C65.0439 14.48 65.8679 15.328 66.9079 15.936C67.9639 16.528 69.1319 16.824 70.4119 16.824C71.9319 16.824 73.3239 16.408 74.5879 15.576C74.7159 15.496 74.8519 15.456 74.9959 15.456C75.2199 15.456 75.4039 15.552 75.5479 15.744C75.6599 15.872 75.7159 16.024 75.7159 16.2C75.7159 16.456 75.6039 16.648 75.3799 16.776C74.7559 17.192 73.9879 17.544 73.0759 17.832C72.1639 18.104 71.2759 18.24 70.4119 18.24C68.8919 18.24 67.4839 17.88 66.1879 17.16C64.9079 16.424 63.8839 15.4 63.1159 14.088C62.3639 12.776 61.9879 11.28 61.9879 9.6C61.9879 7.984 62.3639 6.52 63.1159 5.208C63.8679 3.88 64.8839 2.848 66.1639 2.112C67.4439 1.36 68.8599 0.983999 70.4119 0.983999C71.3079 0.983999 72.1799 1.112 73.0279 1.368C73.8919 1.624 74.6679 1.984 75.3559 2.448ZM89.7396 11.856C89.7396 13.056 89.4756 14.144 88.9476 15.12C88.4196 16.096 87.6916 16.864 86.7636 17.424C85.8356 17.968 84.8036 18.24 83.6676 18.24C82.5316 18.24 81.4996 17.968 80.5716 17.424C79.6436 16.864 78.9156 16.096 78.3876 15.12C77.8596 14.144 77.5956 13.056 77.5956 11.856C77.5956 10.656 77.8596 9.568 78.3876 8.592C78.9156 7.616 79.6436 6.848 80.5716 6.288C81.4996 5.728 82.5316 5.448 83.6676 5.448C84.8036 5.448 85.8356 5.728 86.7636 6.288C87.6916 6.848 88.4196 7.616 88.9476 8.592C89.4756 9.568 89.7396 10.656 89.7396 11.856ZM88.2996 11.856C88.2996 10.896 88.0996 10.032 87.6996 9.264C87.2996 8.496 86.7396 7.896 86.0196 7.464C85.3156 7.016 84.5316 6.792 83.6676 6.792C82.8036 6.792 82.0196 7.016 81.3156 7.464C80.6116 7.896 80.0516 8.496 79.6356 9.264C79.2356 10.032 79.0356 10.896 79.0356 11.856C79.0356 12.8 79.2356 13.656 79.6356 14.424C80.0516 15.192 80.6116 15.8 81.3156 16.248C82.0196 16.68 82.8036 16.896 83.6676 16.896C84.5316 16.896 85.3156 16.68 86.0196 16.248C86.7396 15.816 87.2996 15.216 87.6996 14.448C88.0996 13.68 88.2996 12.816 88.2996 11.856ZM94.2691 17.28C94.2691 17.488 94.1971 17.664 94.0531 17.808C93.9251 17.936 93.7571 18 93.5491 18C93.3411 18 93.1651 17.936 93.0211 17.808C92.8931 17.664 92.8291 17.488 92.8291 17.28V0.959999C92.8291 0.751999 92.8931 0.583999 93.0211 0.456C93.1651 0.312 93.3411 0.24 93.5491 0.24C93.7571 0.24 93.9251 0.312 94.0531 0.456C94.1971 0.583999 94.2691 0.751999 94.2691 0.959999V17.28ZM99.8003 17.28C99.8003 17.488 99.7283 17.664 99.5843 17.808C99.4563 17.936 99.2883 18 99.0803 18C98.8723 18 98.6963 17.936 98.5523 17.808C98.4243 17.664 98.3603 17.488 98.3603 17.28V0.959999C98.3603 0.751999 98.4243 0.583999 98.5523 0.456C98.6963 0.312 98.8723 0.24 99.0803 0.24C99.2883 0.24 99.4563 0.312 99.5843 0.456C99.7283 0.583999 99.8003 0.751999 99.8003 0.959999V17.28ZM113.881 11.16C113.881 11.352 113.809 11.52 113.665 11.664C113.521 11.792 113.353 11.856 113.161 11.856H104.089C104.089 12.816 104.281 13.68 104.665 14.448C105.065 15.2 105.625 15.8 106.345 16.248C107.081 16.68 107.945 16.896 108.937 16.896C109.705 16.896 110.393 16.736 111.001 16.416C111.609 16.096 112.097 15.688 112.465 15.192C112.641 15.048 112.809 14.976 112.969 14.976C113.129 14.976 113.273 15.04 113.401 15.168C113.529 15.296 113.593 15.44 113.593 15.6C113.593 15.776 113.513 15.944 113.353 16.104C112.841 16.728 112.193 17.24 111.409 17.64C110.641 18.04 109.825 18.24 108.961 18.24C107.729 18.24 106.641 17.976 105.697 17.448C104.753 16.92 104.017 16.184 103.489 15.24C102.961 14.28 102.697 13.176 102.697 11.928C102.697 10.616 102.953 9.472 103.465 8.496C103.993 7.504 104.689 6.752 105.553 6.24C106.417 5.712 107.337 5.448 108.313 5.448C109.273 5.448 110.169 5.672 111.001 6.12C111.849 6.568 112.537 7.224 113.065 8.088C113.593 8.952 113.865 9.976 113.881 11.16ZM108.313 6.84C107.385 6.84 106.521 7.16 105.721 7.8C104.937 8.44 104.433 9.36 104.209 10.56H112.393V10.368C112.313 9.648 112.073 9.024 111.673 8.496C111.273 7.952 110.769 7.544 110.161 7.272C109.569 6.984 108.953 6.84 108.313 6.84ZM122.153 5.448C122.905 5.448 123.601 5.536 124.241 5.712C124.897 5.872 125.417 6.096 125.801 6.384C126.201 6.672 126.401 6.984 126.401 7.32C126.401 7.496 126.337 7.656 126.209 7.8C126.097 7.944 125.953 8.016 125.777 8.016C125.617 8.016 125.481 7.984 125.369 7.92C125.273 7.856 125.161 7.76 125.033 7.632C124.825 7.424 124.625 7.272 124.433 7.176C124.193 7.064 123.873 6.976 123.473 6.912C123.089 6.832 122.673 6.792 122.225 6.792C121.345 6.792 120.537 7.016 119.801 7.464C119.081 7.912 118.513 8.52 118.097 9.288C117.681 10.056 117.473 10.904 117.473 11.832C117.473 12.792 117.673 13.656 118.073 14.424C118.473 15.192 119.025 15.8 119.729 16.248C120.449 16.68 121.265 16.896 122.177 16.896C122.753 16.896 123.209 16.848 123.545 16.752C123.897 16.656 124.241 16.52 124.577 16.344C124.689 16.28 124.881 16.136 125.153 15.912C125.281 15.8 125.393 15.72 125.489 15.672C125.585 15.608 125.689 15.576 125.801 15.576C125.993 15.576 126.145 15.64 126.257 15.768C126.369 15.88 126.425 16.032 126.425 16.224C126.425 16.496 126.233 16.792 125.849 17.112C125.465 17.416 124.937 17.68 124.265 17.904C123.593 18.128 122.849 18.24 122.033 18.24C120.865 18.24 119.825 17.968 118.913 17.424C118.001 16.864 117.289 16.096 116.777 15.12C116.281 14.144 116.033 13.048 116.033 11.832C116.033 10.664 116.289 9.6 116.801 8.64C117.313 7.664 118.033 6.888 118.961 6.312C119.889 5.736 120.953 5.448 122.153 5.448ZM131.577 7.128V15.168C131.577 15.776 131.689 16.192 131.913 16.416C132.137 16.624 132.433 16.728 132.801 16.728C132.897 16.728 133.017 16.712 133.161 16.68C133.305 16.632 133.417 16.608 133.497 16.608C133.641 16.608 133.761 16.672 133.857 16.8C133.969 16.912 134.025 17.048 134.025 17.208C134.025 17.432 133.897 17.624 133.641 17.784C133.385 17.928 133.081 18 132.729 18C132.297 18 131.913 17.96 131.577 17.88C131.241 17.8 130.913 17.56 130.593 17.16C130.289 16.76 130.137 16.12 130.137 15.24V7.128H128.385C128.193 7.128 128.025 7.064 127.881 6.936C127.753 6.808 127.689 6.648 127.689 6.456C127.689 6.264 127.753 6.104 127.881 5.976C128.025 5.848 128.193 5.784 128.385 5.784H130.137V3.12C130.137 2.912 130.201 2.744 130.329 2.616C130.473 2.472 130.649 2.4 130.857 2.4C131.065 2.4 131.233 2.472 131.361 2.616C131.505 2.744 131.577 2.912 131.577 3.12V5.784H133.977C134.153 5.784 134.305 5.856 134.433 6C134.577 6.144 134.649 6.304 134.649 6.48C134.649 6.672 134.585 6.832 134.457 6.96C134.329 7.072 134.169 7.128 133.977 7.128H131.577ZM138.702 17.28C138.702 17.488 138.63 17.664 138.486 17.808C138.358 17.936 138.19 18 137.982 18C137.774 18 137.598 17.936 137.454 17.808C137.326 17.664 137.262 17.488 137.262 17.28V6.24C137.262 6.032 137.326 5.864 137.454 5.736C137.598 5.592 137.774 5.52 137.982 5.52C138.19 5.52 138.358 5.592 138.486 5.736C138.63 5.864 138.702 6.032 138.702 6.24V17.28ZM137.982 3.912C137.662 3.912 137.414 3.84 137.238 3.696C137.062 3.536 136.974 3.312 136.974 3.024V2.784C136.974 2.496 137.062 2.28 137.238 2.136C137.43 1.976 137.686 1.896 138.006 1.896C138.646 1.896 138.966 2.192 138.966 2.784V3.024C138.966 3.312 138.878 3.536 138.702 3.696C138.542 3.84 138.302 3.912 137.982 3.912ZM153.771 11.856C153.771 13.056 153.507 14.144 152.979 15.12C152.451 16.096 151.723 16.864 150.795 17.424C149.867 17.968 148.835 18.24 147.699 18.24C146.563 18.24 145.531 17.968 144.603 17.424C143.675 16.864 142.947 16.096 142.419 15.12C141.891 14.144 141.627 13.056 141.627 11.856C141.627 10.656 141.891 9.568 142.419 8.592C142.947 7.616 143.675 6.848 144.603 6.288C145.531 5.728 146.563 5.448 147.699 5.448C148.835 5.448 149.867 5.728 150.795 6.288C151.723 6.848 152.451 7.616 152.979 8.592C153.507 9.568 153.771 10.656 153.771 11.856ZM152.331 11.856C152.331 10.896 152.131 10.032 151.731 9.264C151.331 8.496 150.771 7.896 150.051 7.464C149.347 7.016 148.563 6.792 147.699 6.792C146.835 6.792 146.051 7.016 145.347 7.464C144.643 7.896 144.083 8.496 143.667 9.264C143.267 10.032 143.067 10.896 143.067 11.856C143.067 12.8 143.267 13.656 143.667 14.424C144.083 15.192 144.643 15.8 145.347 16.248C146.051 16.68 146.835 16.896 147.699 16.896C148.563 16.896 149.347 16.68 150.051 16.248C150.771 15.816 151.331 15.216 151.731 14.448C152.131 13.68 152.331 12.816 152.331 11.856ZM162.5 5.448C163.988 5.448 165.076 5.888 165.764 6.768C166.468 7.632 166.82 8.784 166.82 10.224V17.28C166.82 17.488 166.748 17.664 166.604 17.808C166.46 17.936 166.292 18 166.1 18C165.892 18 165.716 17.936 165.572 17.808C165.444 17.664 165.38 17.488 165.38 17.28V10.296C165.38 9.256 165.116 8.416 164.588 7.776C164.076 7.12 163.276 6.792 162.188 6.792C161.5 6.792 160.844 6.952 160.22 7.272C159.612 7.592 159.116 8.024 158.732 8.568C158.348 9.096 158.156 9.672 158.156 10.296V17.28C158.156 17.488 158.084 17.664 157.94 17.808C157.812 17.936 157.644 18 157.436 18C157.228 18 157.052 17.936 156.908 17.808C156.78 17.664 156.716 17.488 156.716 17.28V6.528C156.716 6.32 156.78 6.152 156.908 6.024C157.052 5.88 157.228 5.808 157.436 5.808C157.644 5.808 157.812 5.88 157.94 6.024C158.084 6.152 158.156 6.32 158.156 6.528V7.848C158.588 7.16 159.204 6.592 160.004 6.144C160.82 5.68 161.652 5.448 162.5 5.448Z" fill="#EEEEEE"/>
</svg>
