<svg width="396" height="157" viewBox="0 0 396 157" fill="none" xmlns="http://www.w3.org/2000/svg">
<mask id="path-1-outside-1" maskUnits="userSpaceOnUse" x="173.61" y="111.811" width="221" height="34" fill="black">
<rect fill="white" x="173.61" y="111.811" width="221" height="34"/>
<path d="M193.248 122.809C193.292 122.883 193.315 122.965 193.315 123.054C193.315 123.143 193.292 123.232 193.248 123.321L184.897 144.497C184.779 144.779 184.571 144.92 184.274 144.92C183.977 144.92 183.769 144.787 183.65 144.52L174.654 123.343C174.625 123.254 174.61 123.165 174.61 123.076C174.61 122.987 174.625 122.905 174.654 122.831C174.714 122.653 174.833 122.527 175.011 122.452C175.1 122.408 175.181 122.386 175.256 122.386C175.345 122.386 175.434 122.408 175.523 122.452C175.686 122.527 175.805 122.645 175.879 122.809L184.252 142.493L192.001 122.831C192.075 122.653 192.194 122.527 192.357 122.452C192.446 122.408 192.535 122.386 192.624 122.386C192.713 122.386 192.795 122.408 192.869 122.452C193.047 122.527 193.174 122.645 193.248 122.809Z"/>
<path d="M220.334 132.74C220.097 130.202 219.05 128.079 217.194 126.372C215.324 124.664 213.105 123.811 210.536 123.811C207.983 123.811 205.764 124.672 203.878 126.394C202.008 128.116 200.954 130.231 200.716 132.74H220.334ZM221.715 133.408C221.715 133.423 221.707 133.453 221.692 133.497C221.633 133.868 221.418 134.054 221.047 134.054H200.694C200.798 136.696 201.8 138.93 203.7 140.756C205.6 142.597 207.879 143.518 210.536 143.518C212.14 143.518 213.661 143.146 215.101 142.404C216.526 141.647 217.699 140.608 218.619 139.287C218.723 139.138 218.872 139.042 219.065 138.997H219.176C219.31 138.997 219.436 139.034 219.555 139.109C219.703 139.213 219.792 139.361 219.822 139.554C219.837 139.599 219.844 139.643 219.844 139.688C219.844 139.821 219.8 139.94 219.711 140.044C218.671 141.543 217.335 142.723 215.702 143.584C214.084 144.431 212.362 144.854 210.536 144.854C207.449 144.854 204.806 143.763 202.609 141.58C200.427 139.383 199.336 136.748 199.336 133.675V133.319C199.44 130.306 200.575 127.745 202.743 125.637C204.91 123.529 207.508 122.475 210.536 122.475C213.58 122.475 216.185 123.529 218.352 125.637C220.52 127.745 221.64 130.32 221.715 133.364V133.408Z"/>
<path d="M239.983 112.944C240.161 112.944 240.317 113.011 240.451 113.145C240.599 113.278 240.673 113.442 240.673 113.635C240.673 113.828 240.599 113.991 240.451 114.124C240.317 114.258 240.161 114.325 239.983 114.325C237.162 114.325 234.75 115.319 232.746 117.309C230.757 119.313 229.762 121.725 229.762 124.546V125.77H237.934C238.112 125.77 238.268 125.837 238.402 125.971C238.536 126.104 238.602 126.268 238.602 126.461C238.602 126.639 238.536 126.795 238.402 126.928C238.268 127.062 238.112 127.129 237.934 127.129H229.762V144.074C229.762 144.267 229.695 144.431 229.562 144.564C229.428 144.698 229.265 144.765 229.072 144.765C228.879 144.765 228.716 144.698 228.582 144.564C228.448 144.431 228.382 144.267 228.382 144.074V124.167C228.485 121.05 229.658 118.4 231.9 116.218C234.156 114.035 236.851 112.944 239.983 112.944Z"/>
<path d="M255.757 122.252C258.222 122.252 260.33 123.135 262.081 124.902C263.848 126.654 264.731 128.762 264.731 131.226V144.119C264.731 144.297 264.664 144.445 264.531 144.564C264.397 144.698 264.241 144.765 264.063 144.765C263.885 144.765 263.729 144.698 263.595 144.564C263.477 144.445 263.417 144.297 263.417 144.119V131.226C263.417 129.118 262.668 127.314 261.168 125.815C259.669 124.316 257.865 123.566 255.757 123.566C253.649 123.566 251.846 124.316 250.346 125.815C248.847 127.314 248.097 129.118 248.097 131.226V144.119C248.097 144.297 248.03 144.445 247.897 144.564C247.778 144.698 247.622 144.765 247.429 144.765C247.251 144.765 247.103 144.698 246.984 144.564C246.85 144.445 246.783 144.297 246.783 144.119V113.456C246.783 113.278 246.85 113.13 246.984 113.011C247.103 112.877 247.251 112.811 247.429 112.811C247.622 112.811 247.778 112.877 247.897 113.011C248.03 113.13 248.097 113.278 248.097 113.456V126.594C248.899 125.273 249.968 124.226 251.304 123.455C252.67 122.653 254.154 122.252 255.757 122.252Z"/>
<path d="M289.479 126.617C287.549 124.702 285.226 123.744 282.51 123.744C279.793 123.744 277.47 124.702 275.54 126.617C273.625 128.546 272.667 130.87 272.667 133.586C272.667 136.303 273.625 138.626 275.54 140.556C277.47 142.471 279.793 143.429 282.51 143.429C285.226 143.429 287.549 142.471 289.479 140.556C291.394 138.626 292.352 136.303 292.352 133.586C292.352 130.87 291.394 128.546 289.479 126.617ZM290.414 141.491C288.232 143.673 285.597 144.765 282.51 144.765C279.422 144.765 276.787 143.673 274.605 141.491C272.422 139.309 271.331 136.674 271.331 133.586C271.331 130.513 272.422 127.878 274.605 125.681C276.787 123.499 279.422 122.408 282.51 122.408C285.597 122.408 288.232 123.499 290.414 125.681C292.597 127.878 293.688 130.513 293.688 133.586C293.688 136.674 292.597 139.309 290.414 141.491ZM284.692 120.114C284.499 120.114 284.343 120.048 284.224 119.914C284.091 119.78 284.024 119.625 284.024 119.446C284.024 119.253 284.091 119.098 284.224 118.979C284.343 118.845 284.499 118.778 284.692 118.778H287.23C287.423 118.778 287.579 118.845 287.698 118.979C287.831 119.098 287.898 119.253 287.898 119.446C287.898 119.625 287.831 119.78 287.698 119.914C287.564 120.048 287.408 120.114 287.23 120.114H284.692ZM278.256 118.979C278.39 118.845 278.546 118.778 278.724 118.778H281.285C281.463 118.778 281.619 118.845 281.752 118.979C281.886 119.098 281.953 119.253 281.953 119.446C281.953 119.625 281.886 119.78 281.752 119.914C281.619 120.048 281.463 120.114 281.285 120.114H278.724C278.546 120.114 278.39 120.048 278.256 119.914C278.138 119.78 278.078 119.625 278.078 119.446C278.078 119.253 278.138 119.098 278.256 118.979Z"/>
<path d="M309.685 122.252C312.164 122.252 314.279 123.128 316.031 124.88C317.783 126.631 318.659 128.747 318.659 131.226V144.119C318.659 144.297 318.592 144.445 318.458 144.564C318.339 144.698 318.191 144.765 318.013 144.765C317.82 144.765 317.664 144.698 317.545 144.564C317.412 144.445 317.345 144.297 317.345 144.119V131.226C317.345 129.118 316.595 127.314 315.096 125.815C313.596 124.316 311.793 123.566 309.685 123.566C307.577 123.566 305.773 124.316 304.274 125.815C302.774 127.314 302.025 129.118 302.025 131.226V144.119C302.025 144.297 301.958 144.445 301.824 144.564C301.706 144.698 301.55 144.765 301.357 144.765C301.179 144.765 301.03 144.698 300.911 144.564C300.778 144.445 300.711 144.297 300.711 144.119V131.092C300.756 128.643 301.646 126.557 303.383 124.835C305.135 123.113 307.235 122.252 309.685 122.252Z"/>
<path d="M334.322 122.252C336.801 122.252 338.916 123.128 340.668 124.88C342.42 126.631 343.295 128.747 343.295 131.226V144.119C343.295 144.297 343.229 144.445 343.095 144.564C342.976 144.698 342.828 144.765 342.65 144.765C342.457 144.765 342.301 144.698 342.182 144.564C342.048 144.445 341.982 144.297 341.982 144.119V131.226C341.982 129.118 341.232 127.314 339.733 125.815C338.233 124.316 336.43 123.566 334.322 123.566C332.214 123.566 330.41 124.316 328.911 125.815C327.411 127.314 326.662 129.118 326.662 131.226V144.119C326.662 144.297 326.595 144.445 326.461 144.564C326.342 144.698 326.187 144.765 325.994 144.765C325.815 144.765 325.667 144.698 325.548 144.564C325.415 144.445 325.348 144.297 325.348 144.119V131.092C325.392 128.643 326.283 126.557 328.02 124.835C329.772 123.113 331.872 122.252 334.322 122.252Z"/>
<path d="M368.2 122.252C368.392 122.252 368.548 122.319 368.667 122.452C368.801 122.586 368.868 122.742 368.868 122.92V135.791C368.868 138.27 367.969 140.385 366.173 142.137C364.392 143.889 362.232 144.765 359.693 144.765C357.184 144.765 355.039 143.904 353.258 142.182C351.477 140.46 350.564 138.374 350.519 135.924V122.92C350.519 122.742 350.586 122.586 350.719 122.452C350.853 122.319 351.009 122.252 351.187 122.252C351.38 122.252 351.536 122.319 351.655 122.452C351.788 122.586 351.855 122.742 351.855 122.92V135.791C351.855 137.899 352.62 139.695 354.149 141.18C355.693 142.679 357.541 143.429 359.693 143.429C361.861 143.429 363.709 142.679 365.238 141.18C366.767 139.695 367.531 137.899 367.531 135.791V122.92C367.531 122.742 367.598 122.586 367.732 122.452C367.865 122.319 368.021 122.252 368.2 122.252Z"/>
<path d="M384.709 122.252C387.188 122.252 389.303 123.128 391.055 124.88C392.807 126.631 393.682 128.747 393.682 131.226V144.119C393.682 144.297 393.616 144.445 393.482 144.564C393.363 144.698 393.215 144.765 393.037 144.765C392.844 144.765 392.688 144.698 392.569 144.564C392.436 144.445 392.369 144.297 392.369 144.119V131.226C392.369 129.118 391.619 127.314 390.12 125.815C388.62 124.316 386.817 123.566 384.709 123.566C382.601 123.566 380.797 124.316 379.298 125.815C377.798 127.314 377.049 129.118 377.049 131.226V144.119C377.049 144.297 376.982 144.445 376.848 144.564C376.729 144.698 376.574 144.765 376.381 144.765C376.202 144.765 376.054 144.698 375.935 144.564C375.802 144.445 375.735 144.297 375.735 144.119V131.092C375.779 128.643 376.67 126.557 378.407 124.835C380.159 123.113 382.259 122.252 384.709 122.252Z"/>
</mask>
<path d="M193.248 122.809C193.292 122.883 193.315 122.965 193.315 123.054C193.315 123.143 193.292 123.232 193.248 123.321L184.897 144.497C184.779 144.779 184.571 144.92 184.274 144.92C183.977 144.92 183.769 144.787 183.65 144.52L174.654 123.343C174.625 123.254 174.61 123.165 174.61 123.076C174.61 122.987 174.625 122.905 174.654 122.831C174.714 122.653 174.833 122.527 175.011 122.452C175.1 122.408 175.181 122.386 175.256 122.386C175.345 122.386 175.434 122.408 175.523 122.452C175.686 122.527 175.805 122.645 175.879 122.809L184.252 142.493L192.001 122.831C192.075 122.653 192.194 122.527 192.357 122.452C192.446 122.408 192.535 122.386 192.624 122.386C192.713 122.386 192.795 122.408 192.869 122.452C193.047 122.527 193.174 122.645 193.248 122.809Z" fill="#FAFCFE"/>
<path d="M220.334 132.74C220.097 130.202 219.05 128.079 217.194 126.372C215.324 124.664 213.105 123.811 210.536 123.811C207.983 123.811 205.764 124.672 203.878 126.394C202.008 128.116 200.954 130.231 200.716 132.74H220.334ZM221.715 133.408C221.715 133.423 221.707 133.453 221.692 133.497C221.633 133.868 221.418 134.054 221.047 134.054H200.694C200.798 136.696 201.8 138.93 203.7 140.756C205.6 142.597 207.879 143.518 210.536 143.518C212.14 143.518 213.661 143.146 215.101 142.404C216.526 141.647 217.699 140.608 218.619 139.287C218.723 139.138 218.872 139.042 219.065 138.997H219.176C219.31 138.997 219.436 139.034 219.555 139.109C219.703 139.213 219.792 139.361 219.822 139.554C219.837 139.599 219.844 139.643 219.844 139.688C219.844 139.821 219.8 139.94 219.711 140.044C218.671 141.543 217.335 142.723 215.702 143.584C214.084 144.431 212.362 144.854 210.536 144.854C207.449 144.854 204.806 143.763 202.609 141.58C200.427 139.383 199.336 136.748 199.336 133.675V133.319C199.44 130.306 200.575 127.745 202.743 125.637C204.91 123.529 207.508 122.475 210.536 122.475C213.58 122.475 216.185 123.529 218.352 125.637C220.52 127.745 221.64 130.32 221.715 133.364V133.408Z" fill="#FAFCFE"/>
<path d="M239.983 112.944C240.161 112.944 240.317 113.011 240.451 113.145C240.599 113.278 240.673 113.442 240.673 113.635C240.673 113.828 240.599 113.991 240.451 114.124C240.317 114.258 240.161 114.325 239.983 114.325C237.162 114.325 234.75 115.319 232.746 117.309C230.757 119.313 229.762 121.725 229.762 124.546V125.77H237.934C238.112 125.77 238.268 125.837 238.402 125.971C238.536 126.104 238.602 126.268 238.602 126.461C238.602 126.639 238.536 126.795 238.402 126.928C238.268 127.062 238.112 127.129 237.934 127.129H229.762V144.074C229.762 144.267 229.695 144.431 229.562 144.564C229.428 144.698 229.265 144.765 229.072 144.765C228.879 144.765 228.716 144.698 228.582 144.564C228.448 144.431 228.382 144.267 228.382 144.074V124.167C228.485 121.05 229.658 118.4 231.9 116.218C234.156 114.035 236.851 112.944 239.983 112.944Z" fill="#FAFCFE"/>
<path d="M255.757 122.252C258.222 122.252 260.33 123.135 262.081 124.902C263.848 126.654 264.731 128.762 264.731 131.226V144.119C264.731 144.297 264.664 144.445 264.531 144.564C264.397 144.698 264.241 144.765 264.063 144.765C263.885 144.765 263.729 144.698 263.595 144.564C263.477 144.445 263.417 144.297 263.417 144.119V131.226C263.417 129.118 262.668 127.314 261.168 125.815C259.669 124.316 257.865 123.566 255.757 123.566C253.649 123.566 251.846 124.316 250.346 125.815C248.847 127.314 248.097 129.118 248.097 131.226V144.119C248.097 144.297 248.03 144.445 247.897 144.564C247.778 144.698 247.622 144.765 247.429 144.765C247.251 144.765 247.103 144.698 246.984 144.564C246.85 144.445 246.783 144.297 246.783 144.119V113.456C246.783 113.278 246.85 113.13 246.984 113.011C247.103 112.877 247.251 112.811 247.429 112.811C247.622 112.811 247.778 112.877 247.897 113.011C248.03 113.13 248.097 113.278 248.097 113.456V126.594C248.899 125.273 249.968 124.226 251.304 123.455C252.67 122.653 254.154 122.252 255.757 122.252Z" fill="#FAFCFE"/>
<path d="M289.479 126.617C287.549 124.702 285.226 123.744 282.51 123.744C279.793 123.744 277.47 124.702 275.54 126.617C273.625 128.546 272.667 130.87 272.667 133.586C272.667 136.303 273.625 138.626 275.54 140.556C277.47 142.471 279.793 143.429 282.51 143.429C285.226 143.429 287.549 142.471 289.479 140.556C291.394 138.626 292.352 136.303 292.352 133.586C292.352 130.87 291.394 128.546 289.479 126.617ZM290.414 141.491C288.232 143.673 285.597 144.765 282.51 144.765C279.422 144.765 276.787 143.673 274.605 141.491C272.422 139.309 271.331 136.674 271.331 133.586C271.331 130.513 272.422 127.878 274.605 125.681C276.787 123.499 279.422 122.408 282.51 122.408C285.597 122.408 288.232 123.499 290.414 125.681C292.597 127.878 293.688 130.513 293.688 133.586C293.688 136.674 292.597 139.309 290.414 141.491ZM284.692 120.114C284.499 120.114 284.343 120.048 284.224 119.914C284.091 119.78 284.024 119.625 284.024 119.446C284.024 119.253 284.091 119.098 284.224 118.979C284.343 118.845 284.499 118.778 284.692 118.778H287.23C287.423 118.778 287.579 118.845 287.698 118.979C287.831 119.098 287.898 119.253 287.898 119.446C287.898 119.625 287.831 119.78 287.698 119.914C287.564 120.048 287.408 120.114 287.23 120.114H284.692ZM278.256 118.979C278.39 118.845 278.546 118.778 278.724 118.778H281.285C281.463 118.778 281.619 118.845 281.752 118.979C281.886 119.098 281.953 119.253 281.953 119.446C281.953 119.625 281.886 119.78 281.752 119.914C281.619 120.048 281.463 120.114 281.285 120.114H278.724C278.546 120.114 278.39 120.048 278.256 119.914C278.138 119.78 278.078 119.625 278.078 119.446C278.078 119.253 278.138 119.098 278.256 118.979Z" fill="#FAFCFE"/>
<path d="M309.685 122.252C312.164 122.252 314.279 123.128 316.031 124.88C317.783 126.631 318.659 128.747 318.659 131.226V144.119C318.659 144.297 318.592 144.445 318.458 144.564C318.339 144.698 318.191 144.765 318.013 144.765C317.82 144.765 317.664 144.698 317.545 144.564C317.412 144.445 317.345 144.297 317.345 144.119V131.226C317.345 129.118 316.595 127.314 315.096 125.815C313.596 124.316 311.793 123.566 309.685 123.566C307.577 123.566 305.773 124.316 304.274 125.815C302.774 127.314 302.025 129.118 302.025 131.226V144.119C302.025 144.297 301.958 144.445 301.824 144.564C301.706 144.698 301.55 144.765 301.357 144.765C301.179 144.765 301.03 144.698 300.911 144.564C300.778 144.445 300.711 144.297 300.711 144.119V131.092C300.756 128.643 301.646 126.557 303.383 124.835C305.135 123.113 307.235 122.252 309.685 122.252Z" fill="#FAFCFE"/>
<path d="M334.322 122.252C336.801 122.252 338.916 123.128 340.668 124.88C342.42 126.631 343.295 128.747 343.295 131.226V144.119C343.295 144.297 343.229 144.445 343.095 144.564C342.976 144.698 342.828 144.765 342.65 144.765C342.457 144.765 342.301 144.698 342.182 144.564C342.048 144.445 341.982 144.297 341.982 144.119V131.226C341.982 129.118 341.232 127.314 339.733 125.815C338.233 124.316 336.43 123.566 334.322 123.566C332.214 123.566 330.41 124.316 328.911 125.815C327.411 127.314 326.662 129.118 326.662 131.226V144.119C326.662 144.297 326.595 144.445 326.461 144.564C326.342 144.698 326.187 144.765 325.994 144.765C325.815 144.765 325.667 144.698 325.548 144.564C325.415 144.445 325.348 144.297 325.348 144.119V131.092C325.392 128.643 326.283 126.557 328.02 124.835C329.772 123.113 331.872 122.252 334.322 122.252Z" fill="#FAFCFE"/>
<path d="M368.2 122.252C368.392 122.252 368.548 122.319 368.667 122.452C368.801 122.586 368.868 122.742 368.868 122.92V135.791C368.868 138.27 367.969 140.385 366.173 142.137C364.392 143.889 362.232 144.765 359.693 144.765C357.184 144.765 355.039 143.904 353.258 142.182C351.477 140.46 350.564 138.374 350.519 135.924V122.92C350.519 122.742 350.586 122.586 350.719 122.452C350.853 122.319 351.009 122.252 351.187 122.252C351.38 122.252 351.536 122.319 351.655 122.452C351.788 122.586 351.855 122.742 351.855 122.92V135.791C351.855 137.899 352.62 139.695 354.149 141.18C355.693 142.679 357.541 143.429 359.693 143.429C361.861 143.429 363.709 142.679 365.238 141.18C366.767 139.695 367.531 137.899 367.531 135.791V122.92C367.531 122.742 367.598 122.586 367.732 122.452C367.865 122.319 368.021 122.252 368.2 122.252Z" fill="#FAFCFE"/>
<path d="M384.709 122.252C387.188 122.252 389.303 123.128 391.055 124.88C392.807 126.631 393.682 128.747 393.682 131.226V144.119C393.682 144.297 393.616 144.445 393.482 144.564C393.363 144.698 393.215 144.765 393.037 144.765C392.844 144.765 392.688 144.698 392.569 144.564C392.436 144.445 392.369 144.297 392.369 144.119V131.226C392.369 129.118 391.619 127.314 390.12 125.815C388.62 124.316 386.817 123.566 384.709 123.566C382.601 123.566 380.797 124.316 379.298 125.815C377.798 127.314 377.049 129.118 377.049 131.226V144.119C377.049 144.297 376.982 144.445 376.848 144.564C376.729 144.698 376.574 144.765 376.381 144.765C376.202 144.765 376.054 144.698 375.935 144.564C375.802 144.445 375.735 144.297 375.735 144.119V131.092C375.779 128.643 376.67 126.557 378.407 124.835C380.159 123.113 382.259 122.252 384.709 122.252Z" fill="#FAFCFE"/>
<path d="M193.248 122.809C193.292 122.883 193.315 122.965 193.315 123.054C193.315 123.143 193.292 123.232 193.248 123.321L184.897 144.497C184.779 144.779 184.571 144.92 184.274 144.92C183.977 144.92 183.769 144.787 183.65 144.52L174.654 123.343C174.625 123.254 174.61 123.165 174.61 123.076C174.61 122.987 174.625 122.905 174.654 122.831C174.714 122.653 174.833 122.527 175.011 122.452C175.1 122.408 175.181 122.386 175.256 122.386C175.345 122.386 175.434 122.408 175.523 122.452C175.686 122.527 175.805 122.645 175.879 122.809L184.252 142.493L192.001 122.831C192.075 122.653 192.194 122.527 192.357 122.452C192.446 122.408 192.535 122.386 192.624 122.386C192.713 122.386 192.795 122.408 192.869 122.452C193.047 122.527 193.174 122.645 193.248 122.809Z" stroke="#FAFCFE" stroke-width="1.1401" mask="url(#path-1-outside-1)"/>
<path d="M220.334 132.74C220.097 130.202 219.05 128.079 217.194 126.372C215.324 124.664 213.105 123.811 210.536 123.811C207.983 123.811 205.764 124.672 203.878 126.394C202.008 128.116 200.954 130.231 200.716 132.74H220.334ZM221.715 133.408C221.715 133.423 221.707 133.453 221.692 133.497C221.633 133.868 221.418 134.054 221.047 134.054H200.694C200.798 136.696 201.8 138.93 203.7 140.756C205.6 142.597 207.879 143.518 210.536 143.518C212.14 143.518 213.661 143.146 215.101 142.404C216.526 141.647 217.699 140.608 218.619 139.287C218.723 139.138 218.872 139.042 219.065 138.997H219.176C219.31 138.997 219.436 139.034 219.555 139.109C219.703 139.213 219.792 139.361 219.822 139.554C219.837 139.599 219.844 139.643 219.844 139.688C219.844 139.821 219.8 139.94 219.711 140.044C218.671 141.543 217.335 142.723 215.702 143.584C214.084 144.431 212.362 144.854 210.536 144.854C207.449 144.854 204.806 143.763 202.609 141.58C200.427 139.383 199.336 136.748 199.336 133.675V133.319C199.44 130.306 200.575 127.745 202.743 125.637C204.91 123.529 207.508 122.475 210.536 122.475C213.58 122.475 216.185 123.529 218.352 125.637C220.52 127.745 221.64 130.32 221.715 133.364V133.408Z" stroke="#FAFCFE" stroke-width="1.1401" mask="url(#path-1-outside-1)"/>
<path d="M239.983 112.944C240.161 112.944 240.317 113.011 240.451 113.145C240.599 113.278 240.673 113.442 240.673 113.635C240.673 113.828 240.599 113.991 240.451 114.124C240.317 114.258 240.161 114.325 239.983 114.325C237.162 114.325 234.75 115.319 232.746 117.309C230.757 119.313 229.762 121.725 229.762 124.546V125.77H237.934C238.112 125.77 238.268 125.837 238.402 125.971C238.536 126.104 238.602 126.268 238.602 126.461C238.602 126.639 238.536 126.795 238.402 126.928C238.268 127.062 238.112 127.129 237.934 127.129H229.762V144.074C229.762 144.267 229.695 144.431 229.562 144.564C229.428 144.698 229.265 144.765 229.072 144.765C228.879 144.765 228.716 144.698 228.582 144.564C228.448 144.431 228.382 144.267 228.382 144.074V124.167C228.485 121.05 229.658 118.4 231.9 116.218C234.156 114.035 236.851 112.944 239.983 112.944Z" stroke="#FAFCFE" stroke-width="1.1401" mask="url(#path-1-outside-1)"/>
<path d="M255.757 122.252C258.222 122.252 260.33 123.135 262.081 124.902C263.848 126.654 264.731 128.762 264.731 131.226V144.119C264.731 144.297 264.664 144.445 264.531 144.564C264.397 144.698 264.241 144.765 264.063 144.765C263.885 144.765 263.729 144.698 263.595 144.564C263.477 144.445 263.417 144.297 263.417 144.119V131.226C263.417 129.118 262.668 127.314 261.168 125.815C259.669 124.316 257.865 123.566 255.757 123.566C253.649 123.566 251.846 124.316 250.346 125.815C248.847 127.314 248.097 129.118 248.097 131.226V144.119C248.097 144.297 248.03 144.445 247.897 144.564C247.778 144.698 247.622 144.765 247.429 144.765C247.251 144.765 247.103 144.698 246.984 144.564C246.85 144.445 246.783 144.297 246.783 144.119V113.456C246.783 113.278 246.85 113.13 246.984 113.011C247.103 112.877 247.251 112.811 247.429 112.811C247.622 112.811 247.778 112.877 247.897 113.011C248.03 113.13 248.097 113.278 248.097 113.456V126.594C248.899 125.273 249.968 124.226 251.304 123.455C252.67 122.653 254.154 122.252 255.757 122.252Z" stroke="#FAFCFE" stroke-width="1.1401" mask="url(#path-1-outside-1)"/>
<path d="M289.479 126.617C287.549 124.702 285.226 123.744 282.51 123.744C279.793 123.744 277.47 124.702 275.54 126.617C273.625 128.546 272.667 130.87 272.667 133.586C272.667 136.303 273.625 138.626 275.54 140.556C277.47 142.471 279.793 143.429 282.51 143.429C285.226 143.429 287.549 142.471 289.479 140.556C291.394 138.626 292.352 136.303 292.352 133.586C292.352 130.87 291.394 128.546 289.479 126.617ZM290.414 141.491C288.232 143.673 285.597 144.765 282.51 144.765C279.422 144.765 276.787 143.673 274.605 141.491C272.422 139.309 271.331 136.674 271.331 133.586C271.331 130.513 272.422 127.878 274.605 125.681C276.787 123.499 279.422 122.408 282.51 122.408C285.597 122.408 288.232 123.499 290.414 125.681C292.597 127.878 293.688 130.513 293.688 133.586C293.688 136.674 292.597 139.309 290.414 141.491ZM284.692 120.114C284.499 120.114 284.343 120.048 284.224 119.914C284.091 119.78 284.024 119.625 284.024 119.446C284.024 119.253 284.091 119.098 284.224 118.979C284.343 118.845 284.499 118.778 284.692 118.778H287.23C287.423 118.778 287.579 118.845 287.698 118.979C287.831 119.098 287.898 119.253 287.898 119.446C287.898 119.625 287.831 119.78 287.698 119.914C287.564 120.048 287.408 120.114 287.23 120.114H284.692ZM278.256 118.979C278.39 118.845 278.546 118.778 278.724 118.778H281.285C281.463 118.778 281.619 118.845 281.752 118.979C281.886 119.098 281.953 119.253 281.953 119.446C281.953 119.625 281.886 119.78 281.752 119.914C281.619 120.048 281.463 120.114 281.285 120.114H278.724C278.546 120.114 278.39 120.048 278.256 119.914C278.138 119.78 278.078 119.625 278.078 119.446C278.078 119.253 278.138 119.098 278.256 118.979Z" stroke="#FAFCFE" stroke-width="1.1401" mask="url(#path-1-outside-1)"/>
<path d="M309.685 122.252C312.164 122.252 314.279 123.128 316.031 124.88C317.783 126.631 318.659 128.747 318.659 131.226V144.119C318.659 144.297 318.592 144.445 318.458 144.564C318.339 144.698 318.191 144.765 318.013 144.765C317.82 144.765 317.664 144.698 317.545 144.564C317.412 144.445 317.345 144.297 317.345 144.119V131.226C317.345 129.118 316.595 127.314 315.096 125.815C313.596 124.316 311.793 123.566 309.685 123.566C307.577 123.566 305.773 124.316 304.274 125.815C302.774 127.314 302.025 129.118 302.025 131.226V144.119C302.025 144.297 301.958 144.445 301.824 144.564C301.706 144.698 301.55 144.765 301.357 144.765C301.179 144.765 301.03 144.698 300.911 144.564C300.778 144.445 300.711 144.297 300.711 144.119V131.092C300.756 128.643 301.646 126.557 303.383 124.835C305.135 123.113 307.235 122.252 309.685 122.252Z" stroke="#FAFCFE" stroke-width="1.1401" mask="url(#path-1-outside-1)"/>
<path d="M334.322 122.252C336.801 122.252 338.916 123.128 340.668 124.88C342.42 126.631 343.295 128.747 343.295 131.226V144.119C343.295 144.297 343.229 144.445 343.095 144.564C342.976 144.698 342.828 144.765 342.65 144.765C342.457 144.765 342.301 144.698 342.182 144.564C342.048 144.445 341.982 144.297 341.982 144.119V131.226C341.982 129.118 341.232 127.314 339.733 125.815C338.233 124.316 336.43 123.566 334.322 123.566C332.214 123.566 330.41 124.316 328.911 125.815C327.411 127.314 326.662 129.118 326.662 131.226V144.119C326.662 144.297 326.595 144.445 326.461 144.564C326.342 144.698 326.187 144.765 325.994 144.765C325.815 144.765 325.667 144.698 325.548 144.564C325.415 144.445 325.348 144.297 325.348 144.119V131.092C325.392 128.643 326.283 126.557 328.02 124.835C329.772 123.113 331.872 122.252 334.322 122.252Z" stroke="#FAFCFE" stroke-width="1.1401" mask="url(#path-1-outside-1)"/>
<path d="M368.2 122.252C368.392 122.252 368.548 122.319 368.667 122.452C368.801 122.586 368.868 122.742 368.868 122.92V135.791C368.868 138.27 367.969 140.385 366.173 142.137C364.392 143.889 362.232 144.765 359.693 144.765C357.184 144.765 355.039 143.904 353.258 142.182C351.477 140.46 350.564 138.374 350.519 135.924V122.92C350.519 122.742 350.586 122.586 350.719 122.452C350.853 122.319 351.009 122.252 351.187 122.252C351.38 122.252 351.536 122.319 351.655 122.452C351.788 122.586 351.855 122.742 351.855 122.92V135.791C351.855 137.899 352.62 139.695 354.149 141.18C355.693 142.679 357.541 143.429 359.693 143.429C361.861 143.429 363.709 142.679 365.238 141.18C366.767 139.695 367.531 137.899 367.531 135.791V122.92C367.531 122.742 367.598 122.586 367.732 122.452C367.865 122.319 368.021 122.252 368.2 122.252Z" stroke="#FAFCFE" stroke-width="1.1401" mask="url(#path-1-outside-1)"/>
<path d="M384.709 122.252C387.188 122.252 389.303 123.128 391.055 124.88C392.807 126.631 393.682 128.747 393.682 131.226V144.119C393.682 144.297 393.616 144.445 393.482 144.564C393.363 144.698 393.215 144.765 393.037 144.765C392.844 144.765 392.688 144.698 392.569 144.564C392.436 144.445 392.369 144.297 392.369 144.119V131.226C392.369 129.118 391.619 127.314 390.12 125.815C388.62 124.316 386.817 123.566 384.709 123.566C382.601 123.566 380.797 124.316 379.298 125.815C377.798 127.314 377.049 129.118 377.049 131.226V144.119C377.049 144.297 376.982 144.445 376.848 144.564C376.729 144.698 376.574 144.765 376.381 144.765C376.202 144.765 376.054 144.698 375.935 144.564C375.802 144.445 375.735 144.297 375.735 144.119V131.092C375.779 128.643 376.67 126.557 378.407 124.835C380.159 123.113 382.259 122.252 384.709 122.252Z" stroke="#FAFCFE" stroke-width="1.1401" mask="url(#path-1-outside-1)"/>
<mask id="path-2-outside-2" maskUnits="userSpaceOnUse" x="129.141" y="53.5636" width="266" height="50" fill="black">
<rect fill="white" x="129.141" y="53.5636" width="266" height="50"/>
<path d="M159.979 79.7832C163.346 81.9541 165.029 84.9556 165.029 88.7878V89.4191C165.007 93.052 163.146 96.1421 159.447 98.6896C155.992 101.082 152.115 102.278 147.818 102.278C142.944 102.278 138.78 100.65 135.324 97.3937C131.868 94.1374 130.141 90.2166 130.141 85.6312C130.141 85.0331 130.44 84.7341 131.038 84.7341C131.636 84.7341 131.935 85.0331 131.935 85.6312C131.935 89.7293 133.486 93.2292 136.587 96.1311C139.688 99.0329 143.432 100.484 147.818 100.484C151.672 100.484 155.15 99.4538 158.251 97.3937C161.574 95.1785 163.235 92.5093 163.235 89.3859V88.7878C163.235 85.598 161.828 83.0949 159.015 81.2784C157.044 80.0158 153.488 79.3845 148.349 79.3845C142.258 79.3845 138.016 78.3987 135.623 76.4272C132.987 74.2564 131.669 71.3102 131.669 67.5888C131.669 63.6015 133.353 60.3673 136.72 57.8864C139.754 55.6712 143.365 54.5636 147.552 54.5636C151.428 54.5636 154.939 55.7487 158.085 58.119C161.452 60.6221 163.224 63.7233 163.401 67.4226V67.5555C163.401 68.0429 163.124 68.3087 162.571 68.353H162.504C162.283 68.353 162.083 68.2755 161.906 68.1204C161.729 67.9653 161.64 67.7549 161.64 67.4891C161.463 64.2992 159.89 61.6078 156.922 59.4148C154.131 57.3769 151.007 56.3579 147.552 56.3579C143.852 56.3579 140.652 57.3215 137.949 59.2487C134.936 61.3531 133.43 64.1331 133.43 67.5888C133.43 70.7564 134.538 73.2485 136.753 75.0649C138.813 76.7484 142.678 77.5902 148.349 77.5902L153.001 77.9225L154.895 78.1551L155.892 78.2547L157.454 78.6535L158.916 79.2516L159.979 79.7832Z"/>
<path d="M207.939 54.6633C208.537 54.6633 208.836 54.9624 208.836 55.5605C208.836 56.1585 208.537 56.4576 207.939 56.4576H191.625V101.713C191.625 102.311 191.325 102.61 190.727 102.61C190.129 102.61 189.83 102.311 189.83 101.713V56.4576H173.549C172.951 56.4576 172.652 56.1585 172.652 55.5605C172.652 54.9624 172.951 54.6633 173.549 54.6633H207.939Z"/>
<path d="M223.071 62.8372C218.818 67.1346 216.691 72.3292 216.691 78.4209C216.691 84.5126 218.818 89.7071 223.071 94.0045C227.346 98.3241 232.485 100.484 238.488 100.484C244.491 100.484 249.62 98.3241 253.873 94.0045C258.148 89.7071 260.286 84.5126 260.286 78.4209C260.286 72.3292 258.148 67.1346 253.873 62.8372C249.62 58.5177 244.491 56.3579 238.488 56.3579C232.485 56.3579 227.346 58.5177 223.071 62.8372ZM221.808 95.2671C217.201 90.6153 214.897 84.9999 214.897 78.4209C214.897 71.8419 217.201 66.2264 221.808 61.5746C226.416 56.9006 231.976 54.5636 238.488 54.5636C244.979 54.5636 250.528 56.9006 255.135 61.5746C259.743 66.2264 262.047 71.8419 262.047 78.4209C262.047 84.9999 259.743 90.6153 255.135 95.2671C250.528 99.9411 244.979 102.278 238.488 102.278C231.976 102.278 226.416 99.9411 221.808 95.2671Z"/>
<path d="M305.488 54.5636C306.086 54.5636 306.385 54.8627 306.385 55.4608C306.385 56.0589 306.086 56.3579 305.488 56.3579H272.261V77.5237H299.74C300.338 77.5237 300.637 77.8228 300.637 78.4209C300.637 79.019 300.338 79.318 299.74 79.318H272.261V101.381C272.261 101.979 271.962 102.278 271.364 102.278C270.765 102.278 270.466 101.979 270.466 101.381V55.4608C270.466 54.8627 270.765 54.5636 271.364 54.5636H305.488Z"/>
<path d="M349.694 101.78L331.552 58.2186L313.609 101.78C313.498 102.023 313.321 102.19 313.077 102.278C312.944 102.345 312.811 102.378 312.678 102.378C312.568 102.378 312.457 102.356 312.346 102.311C311.881 102.156 311.648 101.913 311.648 101.58C311.648 101.47 311.682 101.337 311.748 101.182L330.621 55.3611C330.798 54.9845 331.109 54.7962 331.552 54.7962C331.995 54.7962 332.294 54.9845 332.449 55.3611L351.521 101.148C351.588 101.303 351.621 101.447 351.621 101.58C351.621 101.913 351.399 102.156 350.956 102.311C350.846 102.356 350.724 102.378 350.591 102.378C350.148 102.378 349.849 102.178 349.694 101.78Z"/>
<path d="M393.567 54.5636C394.165 54.5636 394.464 54.8627 394.464 55.4608V101.315C394.464 101.758 394.254 102.046 393.833 102.178C393.722 102.223 393.611 102.245 393.501 102.245C393.257 102.245 393.036 102.123 392.836 101.879L360.174 58.1854V101.381C360.174 101.979 359.875 102.278 359.277 102.278C358.678 102.278 358.379 101.979 358.379 101.381V55.494C358.379 55.051 358.579 54.763 358.977 54.6301C359.088 54.5858 359.199 54.5636 359.31 54.5636C359.576 54.5636 359.808 54.6965 360.008 54.9624L392.67 98.6231V55.4608C392.67 54.8627 392.969 54.5636 393.567 54.5636Z"/>
</mask>
<path d="M159.979 79.7832C163.346 81.9541 165.029 84.9556 165.029 88.7878V89.4191C165.007 93.052 163.146 96.1421 159.447 98.6896C155.992 101.082 152.115 102.278 147.818 102.278C142.944 102.278 138.78 100.65 135.324 97.3937C131.868 94.1374 130.141 90.2166 130.141 85.6312C130.141 85.0331 130.44 84.7341 131.038 84.7341C131.636 84.7341 131.935 85.0331 131.935 85.6312C131.935 89.7293 133.486 93.2292 136.587 96.1311C139.688 99.0329 143.432 100.484 147.818 100.484C151.672 100.484 155.15 99.4538 158.251 97.3937C161.574 95.1785 163.235 92.5093 163.235 89.3859V88.7878C163.235 85.598 161.828 83.0949 159.015 81.2784C157.044 80.0158 153.488 79.3845 148.349 79.3845C142.258 79.3845 138.016 78.3987 135.623 76.4272C132.987 74.2564 131.669 71.3102 131.669 67.5888C131.669 63.6015 133.353 60.3673 136.72 57.8864C139.754 55.6712 143.365 54.5636 147.552 54.5636C151.428 54.5636 154.939 55.7487 158.085 58.119C161.452 60.6221 163.224 63.7233 163.401 67.4226V67.5555C163.401 68.0429 163.124 68.3087 162.571 68.353H162.504C162.283 68.353 162.083 68.2755 161.906 68.1204C161.729 67.9653 161.64 67.7549 161.64 67.4891C161.463 64.2992 159.89 61.6078 156.922 59.4148C154.131 57.3769 151.007 56.3579 147.552 56.3579C143.852 56.3579 140.652 57.3215 137.949 59.2487C134.936 61.3531 133.43 64.1331 133.43 67.5888C133.43 70.7564 134.538 73.2485 136.753 75.0649C138.813 76.7484 142.678 77.5902 148.349 77.5902L153.001 77.9225L154.895 78.1551L155.892 78.2547L157.454 78.6535L158.916 79.2516L159.979 79.7832Z" fill="#FAFCFE"/>
<path d="M207.939 54.6633C208.537 54.6633 208.836 54.9624 208.836 55.5605C208.836 56.1585 208.537 56.4576 207.939 56.4576H191.625V101.713C191.625 102.311 191.325 102.61 190.727 102.61C190.129 102.61 189.83 102.311 189.83 101.713V56.4576H173.549C172.951 56.4576 172.652 56.1585 172.652 55.5605C172.652 54.9624 172.951 54.6633 173.549 54.6633H207.939Z" fill="#FAFCFE"/>
<path d="M223.071 62.8372C218.818 67.1346 216.691 72.3292 216.691 78.4209C216.691 84.5126 218.818 89.7071 223.071 94.0045C227.346 98.3241 232.485 100.484 238.488 100.484C244.491 100.484 249.62 98.3241 253.873 94.0045C258.148 89.7071 260.286 84.5126 260.286 78.4209C260.286 72.3292 258.148 67.1346 253.873 62.8372C249.62 58.5177 244.491 56.3579 238.488 56.3579C232.485 56.3579 227.346 58.5177 223.071 62.8372ZM221.808 95.2671C217.201 90.6153 214.897 84.9999 214.897 78.4209C214.897 71.8419 217.201 66.2264 221.808 61.5746C226.416 56.9006 231.976 54.5636 238.488 54.5636C244.979 54.5636 250.528 56.9006 255.135 61.5746C259.743 66.2264 262.047 71.8419 262.047 78.4209C262.047 84.9999 259.743 90.6153 255.135 95.2671C250.528 99.9411 244.979 102.278 238.488 102.278C231.976 102.278 226.416 99.9411 221.808 95.2671Z" fill="#FAFCFE"/>
<path d="M305.488 54.5636C306.086 54.5636 306.385 54.8627 306.385 55.4608C306.385 56.0589 306.086 56.3579 305.488 56.3579H272.261V77.5237H299.74C300.338 77.5237 300.637 77.8228 300.637 78.4209C300.637 79.019 300.338 79.318 299.74 79.318H272.261V101.381C272.261 101.979 271.962 102.278 271.364 102.278C270.765 102.278 270.466 101.979 270.466 101.381V55.4608C270.466 54.8627 270.765 54.5636 271.364 54.5636H305.488Z" fill="#FAFCFE"/>
<path d="M349.694 101.78L331.552 58.2186L313.609 101.78C313.498 102.023 313.321 102.19 313.077 102.278C312.944 102.345 312.811 102.378 312.678 102.378C312.568 102.378 312.457 102.356 312.346 102.311C311.881 102.156 311.648 101.913 311.648 101.58C311.648 101.47 311.682 101.337 311.748 101.182L330.621 55.3611C330.798 54.9845 331.109 54.7962 331.552 54.7962C331.995 54.7962 332.294 54.9845 332.449 55.3611L351.521 101.148C351.588 101.303 351.621 101.447 351.621 101.58C351.621 101.913 351.399 102.156 350.956 102.311C350.846 102.356 350.724 102.378 350.591 102.378C350.148 102.378 349.849 102.178 349.694 101.78Z" fill="#FAFCFE"/>
<path d="M393.567 54.5636C394.165 54.5636 394.464 54.8627 394.464 55.4608V101.315C394.464 101.758 394.254 102.046 393.833 102.178C393.722 102.223 393.611 102.245 393.501 102.245C393.257 102.245 393.036 102.123 392.836 101.879L360.174 58.1854V101.381C360.174 101.979 359.875 102.278 359.277 102.278C358.678 102.278 358.379 101.979 358.379 101.381V55.494C358.379 55.051 358.579 54.763 358.977 54.6301C359.088 54.5858 359.199 54.5636 359.31 54.5636C359.576 54.5636 359.808 54.6965 360.008 54.9624L392.67 98.6231V55.4608C392.67 54.8627 392.969 54.5636 393.567 54.5636Z" fill="#FAFCFE"/>
<path d="M159.979 79.7832C163.346 81.9541 165.029 84.9556 165.029 88.7878V89.4191C165.007 93.052 163.146 96.1421 159.447 98.6896C155.992 101.082 152.115 102.278 147.818 102.278C142.944 102.278 138.78 100.65 135.324 97.3937C131.868 94.1374 130.141 90.2166 130.141 85.6312C130.141 85.0331 130.44 84.7341 131.038 84.7341C131.636 84.7341 131.935 85.0331 131.935 85.6312C131.935 89.7293 133.486 93.2292 136.587 96.1311C139.688 99.0329 143.432 100.484 147.818 100.484C151.672 100.484 155.15 99.4538 158.251 97.3937C161.574 95.1785 163.235 92.5093 163.235 89.3859V88.7878C163.235 85.598 161.828 83.0949 159.015 81.2784C157.044 80.0158 153.488 79.3845 148.349 79.3845C142.258 79.3845 138.016 78.3987 135.623 76.4272C132.987 74.2564 131.669 71.3102 131.669 67.5888C131.669 63.6015 133.353 60.3673 136.72 57.8864C139.754 55.6712 143.365 54.5636 147.552 54.5636C151.428 54.5636 154.939 55.7487 158.085 58.119C161.452 60.6221 163.224 63.7233 163.401 67.4226V67.5555C163.401 68.0429 163.124 68.3087 162.571 68.353H162.504C162.283 68.353 162.083 68.2755 161.906 68.1204C161.729 67.9653 161.64 67.7549 161.64 67.4891C161.463 64.2992 159.89 61.6078 156.922 59.4148C154.131 57.3769 151.007 56.3579 147.552 56.3579C143.852 56.3579 140.652 57.3215 137.949 59.2487C134.936 61.3531 133.43 64.1331 133.43 67.5888C133.43 70.7564 134.538 73.2485 136.753 75.0649C138.813 76.7484 142.678 77.5902 148.349 77.5902L153.001 77.9225L154.895 78.1551L155.892 78.2547L157.454 78.6535L158.916 79.2516L159.979 79.7832Z" stroke="#FAFCFE" stroke-width="1.13416" mask="url(#path-2-outside-2)"/>
<path d="M207.939 54.6633C208.537 54.6633 208.836 54.9624 208.836 55.5605C208.836 56.1585 208.537 56.4576 207.939 56.4576H191.625V101.713C191.625 102.311 191.325 102.61 190.727 102.61C190.129 102.61 189.83 102.311 189.83 101.713V56.4576H173.549C172.951 56.4576 172.652 56.1585 172.652 55.5605C172.652 54.9624 172.951 54.6633 173.549 54.6633H207.939Z" stroke="#FAFCFE" stroke-width="1.13416" mask="url(#path-2-outside-2)"/>
<path d="M223.071 62.8372C218.818 67.1346 216.691 72.3292 216.691 78.4209C216.691 84.5126 218.818 89.7071 223.071 94.0045C227.346 98.3241 232.485 100.484 238.488 100.484C244.491 100.484 249.62 98.3241 253.873 94.0045C258.148 89.7071 260.286 84.5126 260.286 78.4209C260.286 72.3292 258.148 67.1346 253.873 62.8372C249.62 58.5177 244.491 56.3579 238.488 56.3579C232.485 56.3579 227.346 58.5177 223.071 62.8372ZM221.808 95.2671C217.201 90.6153 214.897 84.9999 214.897 78.4209C214.897 71.8419 217.201 66.2264 221.808 61.5746C226.416 56.9006 231.976 54.5636 238.488 54.5636C244.979 54.5636 250.528 56.9006 255.135 61.5746C259.743 66.2264 262.047 71.8419 262.047 78.4209C262.047 84.9999 259.743 90.6153 255.135 95.2671C250.528 99.9411 244.979 102.278 238.488 102.278C231.976 102.278 226.416 99.9411 221.808 95.2671Z" stroke="#FAFCFE" stroke-width="1.13416" mask="url(#path-2-outside-2)"/>
<path d="M305.488 54.5636C306.086 54.5636 306.385 54.8627 306.385 55.4608C306.385 56.0589 306.086 56.3579 305.488 56.3579H272.261V77.5237H299.74C300.338 77.5237 300.637 77.8228 300.637 78.4209C300.637 79.019 300.338 79.318 299.74 79.318H272.261V101.381C272.261 101.979 271.962 102.278 271.364 102.278C270.765 102.278 270.466 101.979 270.466 101.381V55.4608C270.466 54.8627 270.765 54.5636 271.364 54.5636H305.488Z" stroke="#FAFCFE" stroke-width="1.13416" mask="url(#path-2-outside-2)"/>
<path d="M349.694 101.78L331.552 58.2186L313.609 101.78C313.498 102.023 313.321 102.19 313.077 102.278C312.944 102.345 312.811 102.378 312.678 102.378C312.568 102.378 312.457 102.356 312.346 102.311C311.881 102.156 311.648 101.913 311.648 101.58C311.648 101.47 311.682 101.337 311.748 101.182L330.621 55.3611C330.798 54.9845 331.109 54.7962 331.552 54.7962C331.995 54.7962 332.294 54.9845 332.449 55.3611L351.521 101.148C351.588 101.303 351.621 101.447 351.621 101.58C351.621 101.913 351.399 102.156 350.956 102.311C350.846 102.356 350.724 102.378 350.591 102.378C350.148 102.378 349.849 102.178 349.694 101.78Z" stroke="#FAFCFE" stroke-width="1.13416" mask="url(#path-2-outside-2)"/>
<path d="M393.567 54.5636C394.165 54.5636 394.464 54.8627 394.464 55.4608V101.315C394.464 101.758 394.254 102.046 393.833 102.178C393.722 102.223 393.611 102.245 393.501 102.245C393.257 102.245 393.036 102.123 392.836 101.879L360.174 58.1854V101.381C360.174 101.979 359.875 102.278 359.277 102.278C358.678 102.278 358.379 101.979 358.379 101.381V55.494C358.379 55.051 358.579 54.763 358.977 54.6301C359.088 54.5858 359.199 54.5636 359.31 54.5636C359.576 54.5636 359.808 54.6965 360.008 54.9624L392.67 98.6231V55.4608C392.67 54.8627 392.969 54.5636 393.567 54.5636Z" stroke="#FAFCFE" stroke-width="1.13416" mask="url(#path-2-outside-2)"/>
<path d="M55.5453 3.03906L3.09033 55.494L55.5453 107.949L108 55.494L55.5453 3.03906ZM55.5453 48.4055L3.09033 100.86L55.5453 153.315L108 100.86L55.5453 48.4055Z" stroke="#E5AE39" stroke-width="4.2531"/>
</svg>
